PathFileType	4	(X/Y/Z)	OpenSim_Sub04_EMGBaseline_Accel.trc
DataRate	CameraRate	NumFrames	NumMarkers	Units	OrigDataRate	OrigDataStartFrame	OrigNumFrames
100	100	17	8	m	100	3971	7941
Frame#	Time	torso_imu_offset_imu	pelvis_imu_offset_imu	tibia_r_imu_offset_imu	femur_r_imu_offset_imu	tibia_l_imu_offset_imu	femur_l_imu_offset_imu	toes_r_imu_offset_imu	toes_l_imu_offset_imu
				X1	Y1	Z1	X2	Y2	Z2	X3	Y3	Z3	X4	Y4	Z4	X5	Y5	Z5	X6	Y6	Z6	X7	Y7	Z7	X8		Y8	Z8	

3971	39.70000000	-7.50215841	-0.64956677	8.71587045	8.83508958	-0.60387514	3.74999347	3.90847050	6.96475560	2.10102871	9.94952365	-1.78790414	1.61881492	9.46974096	-3.00576867	-1.01697330	8.97155938	0.91977311	-2.85737097	3.71723380	2.53608121	7.35919649	5.65899705	3.14486565	10.24804145
3972	39.71000000	-7.55912932	-0.67943042	8.62927609	8.72597863	-0.56518489	3.69255738	4.42617057	6.80482041	2.02022327	9.91179765	-1.60690111	1.64503696	9.59223280	-2.75128188	-0.99002035	9.00619936	0.81825554	-2.85774118	4.06749876	1.72506985	6.71034574	5.74429920	3.11795353	10.16714831
3973	39.72000000	-7.62235774	-0.67106839	8.61756357	8.85528336	-0.52902786	3.57140883	4.82435021	6.80553165	1.72883076	9.89690843	-1.43091921	1.69705823	9.63881857	-2.57203863	-1.01585105	9.00305878	0.91061779	-2.89805951	4.12295754	0.56132088	6.42824650	5.39807736	3.18413941	10.47599264
3974	39.73000000	-7.50631994	-0.72146470	8.54512980	8.99888314	-0.44978797	3.42842663	4.79067680	6.66213390	1.36297469	9.73507167	-1.26824741	1.77086188	9.66772165	-2.30610147	-0.78075880	9.08497986	1.09882872	-2.96689765	5.53074252	-0.22856369	6.86859299	5.72405839	3.16790873	10.16849939
3975	39.74000000	-7.33366855	-0.71435547	8.53718554	9.11528125	-0.44213977	3.30027429	4.50419788	6.36647962	1.01695732	9.40292819	-1.06718966	1.88888060	9.60737464	-2.20025219	-0.63895731	9.10787055	1.12600410	-2.93439989	8.03036526	-0.35313670	7.70900850	5.87274805	2.88946570	10.06379944
3976	39.75000000	-7.17008424	-0.70165496	8.47215361	9.22594626	-0.44751185	3.19586991	4.29316078	6.47268260	1.12045099	8.91021919	-0.90765643	1.86503583	9.57532412	-2.33963662	-0.36523473	9.03802005	1.16114401	-2.81819503	9.70562695	-0.05876434	8.43148036	5.74175702	2.74709471	10.26948726
3977	39.76000000	-7.09548688	-0.66641019	8.48984388	9.37433552	-0.37027519	3.03955050	4.42825214	7.32509466	1.37557472	8.39027389	-0.80771475	1.85319198	9.60393006	-2.48367819	-0.28873856	9.13994317	0.85057734	-2.77749027	10.16844862	0.38582578	8.94429191	5.72730758	2.94885903	10.32570153
3978	39.77000000	-7.23393243	-0.62892935	8.48557598	9.46701955	-0.42712432	2.98324796	4.99136831	8.54908905	1.55091990	7.89393539	-0.96363126	1.83096753	9.74749369	-2.58509346	-0.17478911	9.16769587	0.74686493	-2.81498195	10.39037480	0.34130280	9.07968514	5.33760812	2.82743273	10.65050792
3979	39.78000000	-7.38114843	-0.65429343	8.49482358	9.52891726	-0.49365828	2.85033235	5.57683494	9.74670724	1.59906849	7.61625652	-1.18722349	1.83311303	9.72672985	-2.70068279	-0.27908862	9.31470055	0.50826279	-2.90809036	10.77205189	-0.41325043	8.95308115	5.87601182	2.71859051	10.11916966
3980	39.79000000	-7.34255423	-0.69675011	8.53153693	9.48752818	-0.59188193	2.73532351	5.84457052	10.45714289	1.60590765	7.57538304	-1.55414455	1.84932315	9.75219552	-2.89253949	-0.41191708	9.62383920	0.34738128	-3.02209376	11.00161490	-0.95351411	8.78672751	5.81035260	2.81119871	10.30222264
3981	39.80000000	-7.26690856	-0.60532956	8.46974287	9.49260736	-0.71715712	2.65952426	6.10273588	10.33859751	1.37110806	7.54039262	-1.79049495	1.83768868	9.72908725	-3.05923122	-0.41217639	9.65543976	0.42403136	-3.09073813	11.89211414	-0.65598418	9.37915485	5.80842554	3.07109014	10.13839170
3982	39.81000000	-7.29008129	-0.54722268	8.45584290	9.43678924	-0.86503972	2.59285847	6.54560218	9.51733698	0.89569186	7.43523753	-1.88855448	1.94477800	9.71515215	-2.95075516	-0.49828529	9.59654317	0.56061643	-3.16492644	14.09076274	-0.35736568	10.16620989	5.26863450	2.99431690	10.58079392
3983	39.82000000	-7.29491556	-0.54042174	8.44727113	9.30853972	-0.99576576	2.43361745	7.25994502	8.30953863	0.90455558	7.20964928	-2.08227095	2.07015035	9.87737978	-2.65772101	-0.56987287	9.48174970	0.59795453	-3.14070168	16.18272197	-0.85342983	10.36241422	5.69750627	3.07741907	10.26017590
3984	39.83000000	-7.24857129	-0.54973595	8.36090399	9.15879857	-1.06541801	2.41101004	7.92721571	6.92220777	1.12065744	7.03610969	-2.23117242	2.22327875	9.97610240	-2.20245640	-0.48731866	9.41076467	0.99245773	-3.11177252	17.29475503	-1.56121329	9.64839669	6.00802511	3.03455228	9.98233435
3985	39.84000000	-7.24321707	-0.59661434	8.45284637	8.96937767	-1.18863249	2.42178276	8.62622934	5.21050363	1.25063261	6.98794234	-2.52051892	2.35713996	9.87070626	-1.84461625	-0.25341107	9.37559686	1.00497118	-3.06094253	17.45934569	-1.57857324	8.40256935	5.91962765	2.90875523	10.12509371
3986	39.85000000	-7.34342687	-0.65375598	8.52145327	8.88170965	-1.22936747	2.29668236	9.59006664	3.44744452	1.54126909	7.01771979	-2.88651574	2.54326058	9.73166284	-1.54740997	-0.18310587	9.20415398	1.12230020	-3.00494787	17.73321098	-0.87569393	7.22775298	5.79888250	2.99516408	10.04555946
3987	39.86000000	-7.49716670	-0.68432925	8.35002327	8.86036722	-1.32452108	2.27912646	10.51761446	2.36269509	2.05461388	7.26414010	-3.49717266	2.67041622	9.66630581	-1.19422172	-0.19772499	8.87979795	1.26295002	-2.98794864	18.03683278	-0.31098984	6.18695979	5.47454450	3.13020379	10.24478913
